# xmcd CD database file
#
# Track frame offsets:
#	150
#	18123
#	35201
#	51345
#	70147
#	89583
#	107549
#	123449
#	140990
#	157897
#	180614
#	200692
#	220068
#	235974
#
# Disc length: 3351 seconds
#
# Revision: 0
# Processed by: cddbd v1.5.2PL0 Copyright (c) Steve Scherf et al.
# Submitted via: CDex 1.70beta2
#
DISCID=cc0d150e
DTITLE=Juca Alencar - Coração Cigano
DYEAR=2012
DGENRE=Country
TTITLE0=Coração Cigano
TTITLE1=Estação do Rio
TTITLE2=Transfusão
TTITLE3=Estações do Amor
TTITLE4=Sonhos Seus
TTITLE5=Eu e Você
TTITLE6=Reminiscência
TTITLE7=Coração Perdido
TTITLE8=Trilhas do Amor
TTITLE9=Sonhei Demais
TTITLE10=Anjo do Bem
TTITLE11=O Sim e o Não da Saudade
TTITLE12=Questão de Gosto
TTITLE13=Voltei
EXTD=YEAR: 2012
EXTT0=
EXTT1=
EXTT2=
EXTT3=
EXTT4=
EXTT5=
EXTT6=
EXTT7=
EXTT8=
EXTT9=
EXTT10=
EXTT11=
EXTT12=
EXTT13=
PLAYORDER=
